<?xml version="1.0" encoding="utf-8"?>
<!-- Generator: Adobe Illustrator 21.1.0, SVG Export Plug-In . SVG Version: 6.00 Build 0)  -->
<svg version="1.1" id="Layer_1" xmlns="http://www.w3.org/2000/svg" xmlns:xlink="http://www.w3.org/1999/xlink" x="0px" y="0px"
	 viewBox="0 0 300 200" style="enable-background:new 0 0 300 200;" xml:space="preserve">
<style type="text/css">
	.st0{fill:#2B648C;}
	.st1{fill:#CCCCCC;}
	.st2{fill:#E6E6E6;}
	.st3{fill:#A5AFE1;}
	.st4{fill:#1B3E57;}
	.st5{opacity:0.5;fill:#808080;enable-background:new    ;}
	.st6{fill:#BE78D1;}
</style>
<g>
	<rect class="st0" width="300" height="200"/>
</g>
<rect x="72.5" y="37.5" class="st1" width="155" height="125"/>
<rect x="72.5" y="46.5" class="st2" width="155" height="7"/>
<rect x="78.7" y="41" class="st2" width="20.9" height="6"/>
<rect x="171.9" y="77" class="st3" width="34.9" height="70"/>
<rect x="91.9" y="57" class="st4" width="116.3" height="16"/>
<rect x="91.9" y="151" class="st4" width="116.3" height="12"/>
<rect x="72.5" y="163" class="st5" width="155" height="3"/>
<rect x="131.9" y="77" class="st3" width="34.9" height="70"/>
<rect x="91.9" y="77" class="st3" width="34.9" height="70"/>
<rect x="161.7" y="60" class="st6" width="43.3" height="8.7"/>
<rect x="95.3" y="79.7" class="st6" width="28.3" height="18.3"/>
<rect x="173.3" y="98" class="st6" width="28.3" height="18.3"/>
<rect x="135.2" y="116.3" class="st6" width="28.3" height="18.3"/>
<g>
	<path d="M142.5,96.1c0.5,0.3,0.9,0.7,1.1,1.1s0.3,1,0.3,1.8v3.5c0,0.7,0.1,1.1,0.3,1.3s0.8,0.3,1.7,0.3h0.4v1.9l-0.8,0
		c-0.7,0-1.2,0-1.4,0c-1.3,0-2.3-0.3-2.8-0.8s-0.8-1.3-0.8-2.5v-3.9c0-0.8-0.1-1.3-0.4-1.5s-0.6-0.4-0.9-0.4v-1.7
		c0.9-0.1,1.3-0.7,1.3-1.7v-3.9c0-1.2,0.3-2,0.8-2.5s1.5-0.8,2.8-0.8c0.2,0,1,0,2.2,0.1v1.9l-0.5,0c-0.7,0-1.1,0-1.4,0.1
		s-0.4,0.2-0.4,0.4s-0.1,0.5-0.1,1v3.5c0,0.5-0.1,1-0.2,1.5S143.2,95.7,142.5,96.1z"/>
	<path d="M156.1,96.1c-0.5-0.3-0.9-0.7-1.1-1.1s-0.3-1-0.3-1.8v-3.5c0-0.7-0.1-1.1-0.3-1.3s-0.7-0.3-1.6-0.3c-0.1,0-0.3,0-0.5,0
		v-1.9c0.1,0,0.3,0,0.8,0c0.7,0,1.2,0,1.4,0c1.3,0,2.3,0.3,2.8,0.8s0.8,1.4,0.8,2.5v3.9c0,0.8,0.1,1.3,0.4,1.5s0.6,0.4,0.9,0.4v1.7
		c-0.9,0.1-1.3,0.7-1.3,1.7v3.9c0,1.1-0.3,1.9-0.8,2.5s-1.5,0.8-2.9,0.8c-0.2,0-0.9,0-2.2,0v-1.9l0.5,0c0.9,0,1.4-0.1,1.6-0.3
		s0.3-0.6,0.3-1.3V99c0-0.5,0.1-1,0.2-1.5C155.1,97,155.5,96.6,156.1,96.1z"/>
</g>
</svg>
