<?xml version="1.0" encoding="utf-8"?>
<!-- Generator: Adobe Illustrator 21.1.0, SVG Export Plug-In . SVG Version: 6.00 Build 0)  -->
<svg version="1.1" id="Layer_1" xmlns="http://www.w3.org/2000/svg" xmlns:xlink="http://www.w3.org/1999/xlink" x="0px" y="0px"
	 viewBox="0 0 300 200" style="enable-background:new 0 0 300 200;" xml:space="preserve">
<style type="text/css">
	.st0{fill:#58C4FF;}
	.st1{fill:#CCCCCC;}
	.st2{fill:#E6E6E6;}
	.st3{fill:#F2F2F2;}
	.st4{fill:#B3B3B3;}
	.st5{opacity:0.5;fill:#808080;}
	.st6{fill:#808080;}
</style>
<g>
	<rect class="st0" width="300" height="201"/>
</g>
<rect x="50" y="37.5" class="st1" width="200" height="125"/>
<rect x="50" y="46.5" class="st2" width="200" height="7"/>
<rect x="58" y="41" class="st2" width="27" height="6"/>
<rect x="50" y="54" class="st3" width="200" height="109"/>
<rect x="75" y="77" class="st1" width="90" height="70"/>
<rect x="180" y="77" class="st1" width="45" height="70"/>
<rect x="75" y="57" class="st4" width="150" height="16"/>
<circle class="st2" cx="88" cy="65" r="8"/>
<rect x="75" y="151" class="st4" width="150" height="12"/>
<rect x="50" y="163" class="st5" width="200" height="3"/>
<g>
	<path class="st6" d="M111.6,112l5.6-2.9v0.8l-4.7,2.4v0l4.7,2.4v0.8l-5.6-2.9V112z"/>
	<path class="st6" d="M117.9,116l3.3-8.7h0.8l-3.4,8.7H117.9z"/>
	<path class="st6" d="M128.4,112.6l-5.6,2.9v-0.8l4.7-2.4v0l-4.7-2.4v-0.8l5.6,2.9V112.6z"/>
</g>
</svg>
