<?xml version="1.0" encoding="utf-8"?>
<!-- Generator: Adobe Illustrator 21.1.0, SVG Export Plug-In . SVG Version: 6.00 Build 0)  -->
<svg version="1.1" id="Layer_1" xmlns="http://www.w3.org/2000/svg" xmlns:xlink="http://www.w3.org/1999/xlink" x="0px" y="0px"
	 viewBox="0 0 300 200" style="enable-background:new 0 0 300 200;" xml:space="preserve">
<style type="text/css">
	.st0{fill:#58C4FF;}
	.st1{fill:#CCCCCC;}
	.st2{fill:#E6E6E6;}
	.st3{fill:#F2F2F2;}
	.st4{fill:#B3B3B3;}
	.st5{opacity:0.5;fill:#808080;enable-background:new    ;}
	.st6{fill:#808080;}
</style>
<g>
	<rect class="st0" width="300" height="200"/>
</g>
<rect x="72.5" y="37.5" class="st1" width="155" height="125"/>
<rect x="72.5" y="46.5" class="st2" width="155" height="7"/>
<rect x="78.7" y="41" class="st2" width="20.9" height="6"/>
<rect x="72.5" y="54" class="st3" width="155" height="109"/>
<rect x="91.9" y="77" class="st1" width="69.8" height="70"/>
<rect x="173.3" y="77" class="st1" width="34.9" height="70"/>
<rect x="91.9" y="57" class="st4" width="116.3" height="16"/>
<ellipse class="st2" cx="101.9" cy="65" rx="6.2" ry="8"/>
<rect x="91.9" y="151" class="st4" width="116.3" height="12"/>
<rect x="72.5" y="163" class="st5" width="155" height="3"/>
<g>
	<path class="st6" d="M120.2,112l4.3-2.9v0.8l-3.6,2.4l0,0l3.6,2.4v0.8l-4.3-2.9V112z"/>
	<path class="st6" d="M125.1,116l2.6-8.7h0.6l-2.6,8.7H125.1z"/>
	<path class="st6" d="M133.3,112.6l-4.3,2.9v-0.8l3.6-2.4l0,0l-3.6-2.4v-0.8l4.3,2.9V112.6z"/>
</g>
</svg>
