<?xml version="1.0" encoding="utf-8"?>
<!-- Generator: Adobe Illustrator 21.1.0, SVG Export Plug-In . SVG Version: 6.00 Build 0)  -->
<svg version="1.1" id="Layer_1" xmlns="http://www.w3.org/2000/svg" xmlns:xlink="http://www.w3.org/1999/xlink" x="0px" y="0px"
	 viewBox="0 0 300 200" style="enable-background:new 0 0 300 200;" xml:space="preserve">
<style type="text/css">
	.st0{fill:#8E3651;}
	.st1{fill:#CCCCCC;}
	.st2{fill:#E6E6E6;}
	.st3{fill:#E8EAED;}
	.st4{fill:#BB8697;}
	.st5{opacity:0.5;fill:#808080;enable-background:new    ;}
	.st6{fill:#F4F0FF;}
	.st7{fill:#EE9A5F;}
	.st8{fill:#FAE1CF;}
	.st9{fill:none;stroke:#F2B387;stroke-width:1.4181;stroke-miterlimit:10;}
	.st10{fill:#F2B387;}
	.st11{fill:#FFFFFF;}
	.st12{enable-background:new    ;}
	.st13{fill:#341E26;}
	.st14{fill:#693C4C;}
</style>
<g>
	<rect class="st0" width="300" height="200"/>
</g>
<rect x="72.5" y="37.5" class="st1" width="155" height="125"/>
<rect x="72.5" y="46.5" class="st2" width="155" height="7"/>
<rect x="78.7" y="41" class="st2" width="20.9" height="6"/>
<rect x="154" y="77" class="st3" width="52.8" height="56"/>
<rect x="91.9" y="57" class="st4" width="116.3" height="16"/>
<rect x="72.5" y="163" class="st5" width="155" height="3"/>
<rect x="91.9" y="137" class="st3" width="114.9" height="23.7"/>
<rect x="92.1" y="77" class="st6" width="53.6" height="56"/>
<rect x="161.7" y="60" class="st7" width="43.3" height="8.7"/>
<rect x="95.3" y="79.7" class="st8" width="28.3" height="18.3"/>
<rect x="157.3" y="111.3" class="st8" width="44.3" height="18.3"/>
<rect x="114.5" y="108.3" class="st8" width="28.3" height="18.3"/>
<rect x="105.9" y="75.4" class="st9" width="64.7" height="37.9"/>
<rect x="110.5" y="71" class="st9" width="64.7" height="37.9"/>
<rect x="114.5" y="67.1" class="st9" width="64.7" height="37.9"/>
<rect x="117.9" y="63.4" class="st9" width="64.7" height="37.9"/>
<rect x="117.9" y="63.4" class="st10" width="64.7" height="37.9"/>
<rect x="117.9" y="68.7" class="st11" width="64.7" height="32.7"/>
<g class="st12">
	<path class="st13" d="M147.2,70c-2,3-3.1,6.3-3.1,9.9c0,3.4,1,6.7,3.1,9.9h-3.2c-2.5-3.2-3.7-6.5-3.7-9.9c0-3.6,1.2-6.9,3.7-9.8
		H147.2z"/>
	<path class="st13" d="M153.3,89.8c2-3,3.1-6.3,3.1-9.9c0-3.4-1-6.7-3.1-9.9h3.2c2.5,3.2,3.7,6.5,3.7,9.9c0,3.6-1.2,6.9-3.7,9.8
		H153.3z"/>
</g>
<rect x="161.8" y="94.9" class="st14" width="19" height="5.6"/>
</svg>
